<svg width="24" height="24" viewBox="0 0 24 24" fill="none" xmlns="http://www.w3.org/2000/svg">
<path fill-rule="evenodd" clip-rule="evenodd" d="M5 3C4.44772 3 4 3.44772 4 4V8.26756C3.4022 8.61337 3 9.25972 3 10C3 10.7403 3.4022 11.3866 4 11.7324V20C4 20.5523 4.44772 21 5 21C5.55228 21 6 20.5523 6 20V11.7324C6.5978 11.3866 7 10.7403 7 10C7 9.25972 6.5978 8.61337 6 8.26756V4C6 3.44772 5.55228 3 5 3ZM12 3C11.4477 3 11 3.44772 11 4V5.26756C10.4022 5.61337 10 6.25972 10 7C10 7.74028 10.4022 8.38663 11 8.73244V20C11 20.5523 11.4477 21 12 21C12.5523 21 13 20.5523 13 20V8.73244C13.5978 8.38663 14 7.74028 14 7C14 6.25972 13.5978 5.61337 13 5.26756V4C13 3.44772 12.5523 3 12 3ZM18 4C18 3.44772 18.4477 3 19 3C19.5523 3 20 3.44772 20 4V13.2676C20.5978 13.6134 21 14.2597 21 15C21 15.7403 20.5978 16.3866 20 16.7324V20C20 20.5523 19.5523 21 19 21C18.4477 21 18 20.5523 18 20V16.7324C17.4022 16.3866 17 15.7403 17 15C17 14.2597 17.4022 13.6134 18 13.2676V4Z" fill="black" fill-opacity="0.7"/>
</svg>
